<svg xmlns="http://www.w3.org/2000/svg" version="1.1" xmlns:xlink="http://www.w3.org/1999/xlink" xmlns:svgjs="http://svgjs.dev/svgjs" width="1920" height="1080" preserveAspectRatio="none" viewBox="0 0 1920 1080"><g mask="url(&quot;#SvgjsMask1026&quot;)" fill="none"><rect width="1920" height="1080" x="0" y="0" fill="#0e2a47"></rect><path d="M22.61,97.952C51.455,98.973,81.065,89.66,96.491,65.265C112.91,39.301,114.35,5.069,97.647,-20.713C82.085,-44.733,51.186,-50.368,22.61,-48.771C-2.847,-47.348,-26.082,-34.939,-39.182,-13.065C-52.671,9.459,-55.501,37.396,-42.733,60.336C-29.632,83.873,-4.31,96.999,22.61,97.952" fill="rgba(28, 83, 142, 0.4)" class="triangle-float1"></path><path d="M132.327,295.836C189.736,293.975,237.309,259.135,269.068,211.275C305.552,156.295,338.53,89.386,308.215,30.778C276.231,-31.056,201.806,-57.444,132.327,-53.084C69.787,-49.16,21.497,-4.011,-9.076,50.688C-38.773,103.82,-51.092,167.939,-20.679,220.665C9.752,273.423,71.454,297.809,132.327,295.836" fill="rgba(28, 83, 142, 0.4)" class="triangle-float3"></path><path d="M57.898,162.085C98.14,163.382,140.222,151.894,161.49,117.707C183.803,81.841,179.704,36.343,159.044,-0.499C137.889,-38.223,101.135,-68.126,57.898,-67.024C16.124,-65.96,-15.442,-32.649,-34.699,4.437C-52.306,38.346,-54.089,78.437,-34.738,111.382C-15.63,143.914,20.189,160.869,57.898,162.085" fill="rgba(28, 83, 142, 0.4)" class="triangle-float3"></path><path d="M1534.19 25.81 a195.62 195.62 0 1 0 391.24 0 a195.62 195.62 0 1 0 -391.24 0z" fill="rgba(28, 83, 142, 0.4)" class="triangle-float2"></path><path d="M1597.37 -37.38 a69.25 69.25 0 1 0 138.5 0 a69.25 69.25 0 1 0 -138.5 0z" fill="rgba(28, 83, 142, 0.4)" class="triangle-float1"></path><path d="M1777.377,210.449C1827.445,211.019,1879.562,190.025,1901.254,144.897C1921.127,103.552,1894.624,58.483,1868.569,20.727C1846.924,-10.638,1815.468,-33.448,1777.377,-34.612C1737.096,-35.843,1698.514,-18.578,1675.995,14.844C1650.34,52.921,1637.165,101.367,1658.293,142.13C1680.864,185.677,1728.331,209.89,1777.377,210.449" fill="rgba(28, 83, 142, 0.4)" class="triangle-float3"></path><path d="M-165.25 885.26 a186.51 186.51 0 1 0 373.02 0 a186.51 186.51 0 1 0 -373.02 0z" fill="rgba(28, 83, 142, 0.4)" class="triangle-float2"></path><path d="M-238.35 958.34 a332.69 332.69 0 1 0 665.38 0 a332.69 332.69 0 1 0 -665.38 0z" fill="rgba(28, 83, 142, 0.4)" class="triangle-float1"></path><path d="M255.948,1429.046C364.292,1429.257,459.189,1362.394,513.212,1268.479C567.075,1174.842,574.921,1060.513,522.164,966.248C468.199,869.825,366.441,807.923,255.948,808.811C146.904,809.688,50.117,875.208,-2.955,970.47C-54.601,1063.172,-51.756,1175.071,0.416,1267.479C53.518,1361.534,147.938,1428.835,255.948,1429.046" fill="rgba(28, 83, 142, 0.4)" class="triangle-float3"></path><path d="M1892.391,1282.191C1967.827,1277.12,2017.413,1211.865,2054.217,1145.821C2089.734,1082.086,2113.807,1008.654,2081.197,943.384C2045.35,871.635,1972.558,824.418,1892.391,821.924C1807.797,819.293,1724.91,857.97,1682.082,930.969C1638.774,1004.785,1643.945,1097.021,1687.912,1170.447C1730.68,1241.871,1809.328,1287.775,1892.391,1282.191" fill="rgba(28, 83, 142, 0.4)" class="triangle-float2"></path><path d="M1856.763,1202.275C1930.883,1202.985,2014.223,1193.259,2050.781,1128.779C2087.038,1064.829,2051.011,989.486,2013.123,926.488C1976.796,866.085,1927.15,809.899,1856.763,806.175C1780.466,802.138,1707.598,842.422,1668.849,908.271C1629.558,975.042,1627.356,1059.843,1669.079,1125.122C1708.122,1186.208,1784.269,1201.58,1856.763,1202.275" fill="rgba(28, 83, 142, 0.4)" class="triangle-float1"></path><path d="M1596.67 827.32 a70.65 70.65 0 1 0 141.3 0 a70.65 70.65 0 1 0 -141.3 0z" fill="rgba(28, 83, 142, 0.4)" class="triangle-float2"></path></g><defs><mask id="SvgjsMask1026"><rect width="1920" height="1080" fill="#ffffff"></rect></mask><style>
                @keyframes float1 {
                    0%{transform: translate(0, 0)}
                    50%{transform: translate(-10px, 0)}
                    100%{transform: translate(0, 0)}
                }

                .triangle-float1 {
                    animation: float1 5s infinite;
                }

                @keyframes float2 {
                    0%{transform: translate(0, 0)}
                    50%{transform: translate(-5px, -5px)}
                    100%{transform: translate(0, 0)}
                }

                .triangle-float2 {
                    animation: float2 4s infinite;
                }

                @keyframes float3 {
                    0%{transform: translate(0, 0)}
                    50%{transform: translate(0, -10px)}
                    100%{transform: translate(0, 0)}
                }

                .triangle-float3 {
                    animation: float3 6s infinite;
                }
            </style></defs></svg>